<svg width="800" height="400" viewBox="0 0 800 400" xmlns="http://www.w3.org/2000/svg">
  <defs>
    <linearGradient id="vsBgSimple" x1="0%" y1="0%" x2="100%" y2="100%">
      <stop offset="0%" style="stop-color:#1e1e1e"/>
      <stop offset="100%" style="stop-color:#252526"/>
    </linearGradient>
  </defs>
  
  <rect width="800" height="400" fill="url(#vsBgSimple)"/>
  
  <text x="400" y="40" text-anchor="middle" font-family="Arial, sans-serif" font-size="28" font-weight="bold" fill="#007acc">
    VS Code Setup
  </text>
  
  <!-- VS Code Interface -->
  <rect x="200" y="80" width="400" height="180" rx="8" fill="#2d2d30" stroke="#007acc" stroke-width="2"/>
  
  <!-- Activity Bar -->
  <rect x="210" y="90" width="30" height="160" fill="#333333"/>
  <rect x="215" y="100" width="20" height="15" rx="2" fill="#007acc"/>
  <rect x="215" y="125" width="20" height="15" rx="2" fill="#616161"/>
  <rect x="215" y="150" width="20" height="15" rx="2" fill="#616161"/>
  
  <!-- Sidebar -->
  <rect x="250" y="90" width="120" height="160" fill="#252526"/>
  <text x="310" y="110" text-anchor="middle" font-family="Arial, sans-serif" font-size="10" fill="#cccccc">
    EXPLORER
  </text>
  <text x="260" y="130" font-family="Arial, sans-serif" font-size="8" fill="#cccccc">
    📁 src/
  </text>
  <text x="270" y="145" font-family="Arial, sans-serif" font-size="8" fill="#cccccc">
    📄 app.js
  </text>
  
  <!-- Editor -->
  <rect x="380" y="90" width="210" height="160" fill="#1e1e1e"/>
  <text x="390" y="110" font-family="monospace" font-size="8" fill="#569cd6">
    const app = 'Hello AWS'
  </text>
  
  <!-- Extensions -->
  <text x="100" y="300" font-family="Arial, sans-serif" font-size="16" font-weight="bold" fill="#007acc">
    Essential Extensions
  </text>
  
  <rect x="80" y="320" width="100" height="20" rx="2" fill="#007acc"/>
  <text x="130" y="335" text-anchor="middle" font-family="Arial, sans-serif" font-size="9" fill="white">
    AWS Toolkit
  </text>
  
  <rect x="200" y="320" width="100" height="20" rx="2" fill="#0078d4"/>
  <text x="250" y="335" text-anchor="middle" font-family="Arial, sans-serif" font-size="9" fill="white">
    Docker
  </text>
  
  <rect x="320" y="320" width="100" height="20" rx="2" fill="#f14c28"/>
  <text x="370" y="335" text-anchor="middle" font-family="Arial, sans-serif" font-size="9" fill="white">
    Git Lens
  </text>
  
  <!-- Features -->
  <text x="650" y="120" font-family="Arial, sans-serif" font-size="14" font-weight="bold" fill="#007acc">
    Features
  </text>
  
  <text x="650" y="145" font-family="Arial, sans-serif" font-size="11" fill="#cccccc">
    • IntelliSense
  </text>
  <text x="650" y="165" font-family="Arial, sans-serif" font-size="11" fill="#cccccc">
    • Debugging
  </text>
  <text x="650" y="185" font-family="Arial, sans-serif" font-size="11" fill="#cccccc">
    • Git Integration
  </text>
  <text x="650" y="205" font-family="Arial, sans-serif" font-size="11" fill="#cccccc">
    • Extensions
  </text>
  
  <text x="100" y="380" font-family="Arial, sans-serif" font-size="12" fill="#cccccc">
    Professional code editor optimized for AWS development
  </text>
</svg>